<svg xmlns="http://www.w3.org/2000/svg" viewBox="0 0 320 200">
  <defs>
    <linearGradient id="bgSocial" x1="0" y1="0" x2="1" y2="1">
      <stop offset="0%" stop-color="#1a1a23" />
      <stop offset="100%" stop-color="#0c0c11" />
    </linearGradient>
    <linearGradient id="badge" x1="0" y1="0" x2="1" y2="1">
      <stop offset="0%" stop-color="#c8a15b" />
      <stop offset="100%" stop-color="#886634" />
    </linearGradient>
  </defs>
  <rect width="320" height="200" rx="24" fill="url(#bgSocial)" />
  <path d="M64 64h192c14 0 24 10 24 24v60c0 14-10 24-24 24H64c-14 0-24-10-24-24V88c0-14 10-24 24-24z" fill="rgba(200, 161, 91, 0.12)" stroke="#c8a15b" stroke-opacity="0.5" stroke-width="2" />
  <circle cx="118" cy="114" r="28" fill="#c8a15b" opacity="0.7" />
  <circle cx="202" cy="114" r="28" fill="#c8a15b" opacity="0.5" />
  <path d="M92 146c18-20 52-20 70 0" fill="none" stroke="#c8a15b" stroke-width="4" stroke-linecap="round" opacity="0.8" />
  <path d="M176 146c18-20 52-20 70 0" fill="none" stroke="#c8a15b" stroke-width="4" stroke-linecap="round" opacity="0.5" />
  <path d="M118 92c10 0 18-8 18-18s-8-18-18-18-18 8-18 18 8 18 18 18z" fill="#f8e2b8" opacity="0.8" />
  <path d="M202 92c10 0 18-8 18-18s-8-18-18-18-18 8-18 18 8 18 18 18z" fill="#f8e2b8" opacity="0.6" />
  <circle cx="160" cy="72" r="10" fill="#c8a15b" />
  <path d="M160 132l18 40 18-40" fill="none" stroke="#c8a15b" stroke-width="4" stroke-linecap="round" stroke-linejoin="round" opacity="0.7" />
</svg>
